<svg xmlns="http://www.w3.org/2000/svg" viewBox="0 0 760 1100" font-family="'DejaVu Sans', Arial, sans-serif">
  <rect x="0" y="0" width="760" height="1100" fill="#ffffff"/>
  <text x="380" y="52" text-anchor="middle" font-size="29" font-weight="700" fill="#0f172a">Keeping Things Local: VM Architecture</text>
  <defs>
    <marker id="arrow" viewBox="0 0 10 10" refX="8" refY="5" markerWidth="7" markerHeight="7" orient="auto-start-reverse">
      <path d="M0,0 L10,5 L0,10 z" fill="#475569"/>
    </marker>
  </defs>

  <!-- Marvin (client) -->
  <rect x="90" y="96" width="580" height="200" rx="14" fill="#f8fafc" stroke="#94a3b8" stroke-width="2"/>
  <text x="380" y="136" text-anchor="middle" font-size="24" font-weight="700" fill="#0f172a">Marvin</text>
  <text x="380" y="162" text-anchor="middle" font-size="15" fill="#475569">client · user: benjy</text>
  <g fill="#475569">
    <rect x="110" y="185" width="165" height="64" rx="10"/>
    <rect x="298" y="185" width="165" height="64" rx="10"/>
    <rect x="485" y="185" width="165" height="64" rx="10"/>
  </g>
  <g fill="#ffffff" font-size="16" font-weight="600" text-anchor="middle">
    <text x="192" y="222">Terminal / curl</text>
    <text x="380" y="222">TUI chat client</text>
    <text x="567" y="222">Web UI</text>
  </g>
  <text x="380" y="280" text-anchor="middle" font-size="14" fill="#475569">8 GB RAM · 2 vCPU · headless</text>

  <line x1="380" y1="304" x2="380" y2="380" stroke="#475569" stroke-width="4" marker-start="url(#arrow)" marker-end="url(#arrow)"/>

  <!-- Tailscale mesh -->
  <rect x="230" y="386" width="300" height="100" rx="26" fill="#2563eb"/>
  <text x="380" y="428" text-anchor="middle" font-size="22" font-weight="700" fill="#ffffff">Tailscale mesh</text>
  <text x="380" y="457" text-anchor="middle" font-size="16" fill="#dbeafe" font-family="'DejaVu Sans Mono', monospace">encrypted · 100.x.y.z</text>

  <line x1="380" y1="492" x2="380" y2="568" stroke="#475569" stroke-width="4" marker-start="url(#arrow)" marker-end="url(#arrow)"/>

  <!-- HeartOfGold (server) -->
  <rect x="140" y="574" width="480" height="436" rx="14" fill="#f8fafc" stroke="#94a3b8" stroke-width="2"/>
  <text x="380" y="616" text-anchor="middle" font-size="24" font-weight="700" fill="#0f172a">HeartOfGold</text>
  <text x="380" y="642" text-anchor="middle" font-size="15" fill="#475569">server · user: frankie</text>

  <!-- nginx -->
  <rect x="190" y="670" width="380" height="100" rx="10" fill="#0d9488"/>
  <text x="380" y="710" text-anchor="middle" font-size="22" font-weight="700" fill="#ffffff">nginx</text>
  <text x="380" y="739" text-anchor="middle" font-size="16" fill="#d1fae5">reverse proxy + basic auth</text>

  <line x1="380" y1="774" x2="380" y2="846" stroke="#475569" stroke-width="4" marker-start="url(#arrow)" marker-end="url(#arrow)"/>

  <!-- Ollama -->
  <rect x="190" y="850" width="380" height="100" rx="10" fill="#7c3aed"/>
  <text x="380" y="890" text-anchor="middle" font-size="22" font-weight="700" fill="#ffffff">Ollama</text>
  <text x="380" y="919" text-anchor="middle" font-size="16" fill="#ede9fe">local LLM</text>

  <text x="380" y="984" text-anchor="middle" font-size="14" fill="#475569">RAM/disk: TBD</text>

  <text x="380" y="1068" text-anchor="middle" font-size="18" fill="#64748b">Final-state architecture, after the nginx lab (lesson 06) is complete.</text>
</svg>
