<svg xmlns="http://www.w3.org/2000/svg" viewBox="0 0 860 1250" font-family="'DejaVu Sans', Arial, sans-serif">
  <rect x="0" y="0" width="860" height="1250" fill="#ffffff"/>
  <text x="430" y="50" text-anchor="middle" font-size="27" font-weight="700" fill="#0f172a">Keeping Things Local: Self-Hosted Mesh with Headscale</text>
  <text x="430" y="80" text-anchor="middle" font-size="16" fill="#475569">Control plane self-hosted on hardware you own (lab colocates it on HeartOfGold)</text>

  <defs>
    <marker id="arrow" viewBox="0 0 10 10" refX="8" refY="5" markerWidth="7" markerHeight="7" orient="auto-start-reverse">
      <path d="M0,0 L10,5 L0,10 z" fill="#475569"/>
    </marker>
    <marker id="ctrl" viewBox="0 0 10 10" refX="8" refY="5" markerWidth="7" markerHeight="7" orient="auto-start-reverse">
      <path d="M0,0 L10,5 L0,10 z" fill="#b45309"/>
    </marker>
  </defs>

  <!-- Control plane (dashed) drawn first so panels/boxes sit on top -->
  <path d="M 230,246 L 92,246 L 92,704 L 205,704" fill="none" stroke="#b45309" stroke-width="3" stroke-dasharray="9 6" marker-start="url(#ctrl)" marker-end="url(#ctrl)"/>
  <text transform="rotate(-90 74 475)" x="74" y="475" text-anchor="middle" font-size="15" fill="#b45309" font-weight="600">control plane: enroll · keys · policy</text>
  <path d="M 655,804 L 690,804 L 690,704 L 655,704" fill="none" stroke="#b45309" stroke-width="3" stroke-dasharray="9 6" marker-start="url(#ctrl)" marker-end="url(#ctrl)"/>

  <!-- Marvin (client) -->
  <rect x="150" y="118" width="560" height="180" rx="14" fill="#f8fafc" stroke="#94a3b8" stroke-width="2"/>
  <text x="430" y="158" text-anchor="middle" font-size="24" font-weight="700" fill="#0f172a">Marvin</text>
  <text x="430" y="184" text-anchor="middle" font-size="15" fill="#475569">client · user: benjy</text>
  <rect x="230" y="208" width="400" height="76" rx="10" fill="#475569"/>
  <text x="430" y="238" text-anchor="middle" font-size="18" font-weight="700" fill="#ffffff">tailscale client</text>
  <text x="430" y="264" text-anchor="middle" font-size="13" fill="#cbd5e1" font-family="'DejaVu Sans Mono', monospace">--login-server &#8594; HeartOfGold</text>

  <!-- Data plane: Marvin -> mesh -->
  <line x1="430" y1="304" x2="430" y2="374" stroke="#475569" stroke-width="4" marker-start="url(#arrow)" marker-end="url(#arrow)"/>

  <!-- Tailscale mesh (data plane) -->
  <rect x="280" y="380" width="300" height="100" rx="26" fill="#2563eb"/>
  <text x="430" y="422" text-anchor="middle" font-size="22" font-weight="700" fill="#ffffff">Tailscale mesh</text>
  <text x="430" y="451" text-anchor="middle" font-size="16" fill="#dbeafe" font-family="'DejaVu Sans Mono', monospace">encrypted · 100.x.y.z</text>

  <!-- Data plane: mesh -> HeartOfGold -->
  <line x1="430" y1="486" x2="430" y2="560" stroke="#475569" stroke-width="4" marker-start="url(#arrow)" marker-end="url(#arrow)"/>

  <!-- HeartOfGold (server) -->
  <rect x="150" y="566" width="560" height="530" rx="14" fill="#f8fafc" stroke="#94a3b8" stroke-width="2"/>
  <text x="430" y="606" text-anchor="middle" font-size="24" font-weight="700" fill="#0f172a">HeartOfGold</text>
  <text x="430" y="632" text-anchor="middle" font-size="15" fill="#475569">server · user: frankie</text>

  <!-- Headscale (control plane) -->
  <rect x="205" y="658" width="450" height="92" rx="10" fill="#334155"/>
  <text x="430" y="690" text-anchor="middle" font-size="21" font-weight="700" fill="#ffffff">Headscale</text>
  <text x="430" y="714" text-anchor="middle" font-size="14" fill="#cbd5e1">self-hosted control plane</text>
  <text x="430" y="734" text-anchor="middle" font-size="12" fill="#94a3b8">identity · keys · policy</text>

  <!-- tailscale client on HeartOfGold -->
  <rect x="205" y="772" width="450" height="64" rx="10" fill="#64748b"/>
  <text x="430" y="810" text-anchor="middle" font-size="19" font-weight="700" fill="#ffffff">tailscale client</text>

  <!-- Data plane: client -> Ollama -->
  <line x1="430" y1="842" x2="430" y2="896" stroke="#475569" stroke-width="4" marker-start="url(#arrow)" marker-end="url(#arrow)"/>

  <!-- Ollama -->
  <rect x="205" y="898" width="450" height="92" rx="10" fill="#7c3aed"/>
  <text x="430" y="930" text-anchor="middle" font-size="21" font-weight="700" fill="#ffffff">Ollama</text>
  <text x="430" y="956" text-anchor="middle" font-size="14" fill="#ede9fe">local LLM · binds to tailnet address</text>

  <text x="430" y="1052" text-anchor="middle" font-size="14" fill="#475569">8 GB RAM · 2 vCPU · 30 GB disk</text>

  <!-- Legend -->
  <line x1="170" y1="1135" x2="230" y2="1135" stroke="#475569" stroke-width="4" marker-start="url(#arrow)" marker-end="url(#arrow)"/>
  <text x="246" y="1140" font-size="15" fill="#334155">data plane: encrypted WireGuard traffic between nodes</text>
  <line x1="170" y1="1168" x2="230" y2="1168" stroke="#b45309" stroke-width="3" stroke-dasharray="9 6" marker-start="url(#ctrl)" marker-end="url(#ctrl)"/>
  <text x="246" y="1173" font-size="15" fill="#334155">control plane: enrollment, keys, and access policy (Headscale)</text>

  <text x="430" y="1220" text-anchor="middle" font-size="16" fill="#b45309" font-weight="600">In production, run Headscale on a separate hardened host, not on the workload server.</text>
</svg>
